<?xml version="1.0" encoding="utf-8"?>
<?xml-stylesheet type="text/xsl" href="rss1.xsl"?>
<rss version="2.0" xmlns:atom="http://www.w3.org/2005/Atom" xmlns:content="http://purl.org/rss/1.0/modules/content/" xmlns:dc="http://purl.org/dc/elements/1.1/" xmlns:media="http://search.yahoo.com/mrss/">
<channel>
 <title>Getty</title>
 <link>http://www.gettyimg.com/</link>
 <atom:link href="http://www.gettyimg.com/" rel="self" type="application/rss+xml" />

 
                <item>
                <title><![CDATA[【Actresses】Viktoria Skitskaya - DAU. New Man (2020)1080p]]></title>
                <link><![CDATA[https://sharemania.us/threads/viktoria-skitskaya-dau-new-man-2020-1080p.240095/]]></link>
                <description><![CDATA[<article>
<blockquote class="messageText SelectQuoteContainer ugc baseHtml">
Viktoria Skitskaya - DAU. New Man (2020)1080p<br>
<br>
<a href="https://imgbox.com/j5HEyI9e" target="_blank" class="externalLink" rel="nofollow"><img src="https://thumbs2.imgbox.com/41/f0/j5HEyI9e_t.jpg" class="bbCodeImage LbImage" alt="[​IMG]" data-url="https://thumbs2.imgbox.com/41/f0/j5HEyI9e_t.jpg"></a> <a href="https://imgbox.com/gHAS1xks" target="_blank" class="externalLink" rel="nofollow"><img src="https://thumbs2.imgbox.com/91/f5/gHAS1xks_t.jpg" class="bbCodeImage LbImage" alt="[​IMG]" data-url="https://thumbs2.imgbox.com/91/f5/gHAS1xks_t.jpg"></a> <a href="https://imgbox.com/jNSkma1D" target="_blank" class="externalLink" rel="nofollow"><img src="https://thumbs2.imgbox.com/dc/f5/jNSkma1D_t.jpg" class="bbCodeImage LbImage" alt="[​IMG]" data-url="https://thumbs2.imgbox.com/dc/f5/jNSkma1D_t.jpg"></a> <a href="https://imgbox.com/C22u2KNh" target="_blank" class="externalLink" rel="nofollow"><img src="https://thumbs2.imgbox.com/73/50/C22u2KNh_t.jpg" class="bbCodeImage LbImage" alt="[​IMG]" data-url="https://thumbs2.imgbox.com/73/50/C22u2KNh_t.jpg"></a> <a href="https://imgbox.com/kdrvmibL" target="_blank" class="externalLink" rel="nofollow"><img src="https://thumbs2.imgbox.com/c6/80/kdrvmibL_t.jpg" class="bbCodeImage LbImage" alt="[​IMG]" data-url="https://thumbs2.imgbox.com/c6/80/kdrvmibL_t.jpg"></a> <a href="https://imgbox.com/DGSiQy2K" target="_blank" class="externalLink" rel="nofollow"><img src="https://thumbs2.imgbox.com/1f/86/DGSiQy2K_t.jpg" class="bbCodeImage LbImage" alt="[​IMG]" data-url="https://thumbs2.imgbox.com/1f/86/DGSiQy2K_t.jpg"></a><br>
Duration: 0:09:39 Resolution: 1920x1080 Format: mp4 Size: 349.61 MB<br>
<a href="https://filejoker.net/971g84gv4pje" target="_blank" class="externalLink" rel="nofollow">https://filejoker.net/971g84gv4pje</a>
<div class="messageTextEndMarker">&nbsp;</div>
</blockquote>
</article>]]></description>
                <author><![CDATA[piqeros]]></author>
                </item>

                
                <item>
                <title><![CDATA[【HD Live Performances】WEB-DL - YSY A Lollapalooza Argentina (2024) 1080p FLOW WEB-DL AAC2.0 H.264-fstambuk]]></title>
                <link><![CDATA[https://sharemania.us/threads/ysy-a-lollapalooza-argentina-2024-1080p-flow-web-dl-aac2-0-h-264-fstambuk.240098/]]></link>
                <description><![CDATA[<article>
<blockquote class="messageText SelectQuoteContainer ugc baseHtml">
<div style="text-align: center"><img src="https://i.ibb.co/cw4DH1J/20240316161047.gif" class="bbCodeImage LbImage" alt="[​IMG]" data-url="https://i.ibb.co/cw4DH1J/20240316161047.gif" style=""><br>
​</div>
<div class="ToggleTriggerAnchor bbCodeSpoilerContainer">
<button type="button" class="button bbCodeSpoilerButton ToggleTrigger Tooltip JsOnly" data-target="> .SpoilerTarget"><span>Spoiler: <span class="SpoilerTitle">Lollapalooza</span></span></button>
<div class="SpoilerTarget bbCodeSpoilerText">
<div class="bbCodeBlock bbCodeCode">
<div class="type">Code:</div>
<pre>Complete name                            : YSY A Lollapalooza Argentina (2024) 1080p FLOW WEB-DL AAC2.0 H.264-fstambuk.mkv
Format                                   : Matroska
Format version                           : Version 4
File size                                : 2.13 GiB
Duration                                 : 59 min 59 s
Overall bit rate                         : 5 093 kb/s
Frame rate                               : 29.970 FPS
Encoded date                             : 2024-03-16 15:36:35 UTC
Writing application                      : mkvmerge v82.0 ('I'm The President') 64-bit
Writing library                          : libebml v1.4.5 + libmatroska v1.7.1

Video
ID                                       : 1
Format                                   : AVC
Format/Info                              : Advanced Video Codec
Format profile                           : High@L4
Format settings                          : CABAC / 3 Ref Frames
Format settings, CABAC                   : Yes
Format settings, Reference frames        : 3 frames
Format settings, GOP                     : M=1, N=60
Codec ID                                 : V_MPEG4/ISO/AVC
Duration                                 : 59 min 59 s
Bit rate                                 : 4 995 kb/s
Width                                    : 1 920 pixels
Height                                   : 1 080 pixels
Display aspect ratio                     : 16:9
Frame rate mode                          : Constant
Frame rate                               : 29.970 (30000/1001) FPS
Color space                              : YUV
Chroma subsampling                       : 4:2:0
Bit depth                                : 8 bits
Scan type                                : Progressive
Bits/(Pixel*Frame)                       : 0.080
Stream size                              : 2.09 GiB (98%)
Default                                  : Yes
Forced                                   : No

Audio
ID                                       : 2
Format                                   : AAC LC SBR
Format/Info                              : Advanced Audio Codec Low Complexity with Spectral Band Replication
Commercial name                          : HE-AAC
Format settings                          : Implicit
Codec ID                                 : 2 / A_AAC-2
Duration                                 : 59 min 59 s
Bit rate                                 : 96.0 kb/s
Channel(s)                               : 2 channels
Channel layout                           : L R
Sampling rate                            : 48.0 kHz
Frame rate                               : 23.438 FPS (2048 SPF)
Compression mode                         : Lossy
Stream size                              : 41.2 MiB (2%)
Title                                    : Spanish
Language                                 : Spanish
Default                                  : Yes
Forced                                   : No

</pre>
</div><div style="text-align: center">​</div></div>
</div><div style="text-align: center"><br>
<div class="bbCodeBlock bbCodeVfcHH HiddenContent">
<div class="attribution type">Hidden Content:</div>
<blockquote>You must reply before you can see the hidden data contained here.</blockquote>
</div></div>
<div class="messageTextEndMarker">&nbsp;</div>
</blockquote>
</article>]]></description>
                <author><![CDATA[fstambuk]]></author>
                </item>

                
                <item>
                <title><![CDATA[【HD Live Performances】WEB-DL - The Offspring Lollapalooza Argentina (2024) 1080p FLOW WEB-DL AAC2.0 H.264-fstambuk]]></title>
                <link><![CDATA[https://sharemania.us/threads/the-offspring-lollapalooza-argentina-2024-1080p-flow-web-dl-aac2-0-h-264-fstambuk.240096/]]></link>
                <description><![CDATA[<article>
<blockquote class="messageText SelectQuoteContainer ugc baseHtml">
<div style="text-align: center"><img src="https://i.ibb.co/QfsNXsW/20240316160722.gif" class="bbCodeImage LbImage" alt="[​IMG]" data-url="https://i.ibb.co/QfsNXsW/20240316160722.gif" style=""><br>
​</div>
<div class="ToggleTriggerAnchor bbCodeSpoilerContainer">
<button type="button" class="button bbCodeSpoilerButton ToggleTrigger Tooltip JsOnly" data-target="> .SpoilerTarget"><span>Spoiler: <span class="SpoilerTitle">Lollapalooza</span></span></button>
<div class="SpoilerTarget bbCodeSpoilerText">
<div class="bbCodeBlock bbCodeCode">
<div class="type">Code:</div>
<pre>Complete name                            : The Offspring Lollapalooza Argentina (2024) 1080p FLOW WEB-DL AAC2.0 H.264-fstambuk.mkv
Format                                   : Matroska
Format version                           : Version 4
File size                                : 1.98 GiB
Duration                                 : 58 min 7 s
Overall bit rate                         : 4 880 kb/s
Frame rate                               : 29.970 FPS
Encoded date                             : 2024-03-16 15:32:16 UTC
Writing application                      : mkvmerge v82.0 ('I'm The President') 64-bit
Writing library                          : libebml v1.4.5 + libmatroska v1.7.1

Video
ID                                       : 1
Format                                   : AVC
Format/Info                              : Advanced Video Codec
Format profile                           : High@L4
Format settings                          : CABAC / 3 Ref Frames
Format settings, CABAC                   : Yes
Format settings, Reference frames        : 3 frames
Format settings, GOP                     : M=1, N=60
Codec ID                                 : V_MPEG4/ISO/AVC
Duration                                 : 58 min 7 s
Bit rate                                 : 4 782 kb/s
Width                                    : 1 920 pixels
Height                                   : 1 080 pixels
Display aspect ratio                     : 16:9
Frame rate mode                          : Constant
Frame rate                               : 29.970 (30000/1001) FPS
Color space                              : YUV
Chroma subsampling                       : 4:2:0
Bit depth                                : 8 bits
Scan type                                : Progressive
Bits/(Pixel*Frame)                       : 0.077
Stream size                              : 1.94 GiB (98%)
Default                                  : Yes
Forced                                   : No

Audio
ID                                       : 2
Format                                   : AAC LC SBR
Format/Info                              : Advanced Audio Codec Low Complexity with Spectral Band Replication
Commercial name                          : HE-AAC
Format settings                          : Implicit
Codec ID                                 : 2 / A_AAC-2
Duration                                 : 58 min 7 s
Bit rate                                 : 96.0 kb/s
Channel(s)                               : 2 channels
Channel layout                           : L R
Sampling rate                            : 48.0 kHz
Frame rate                               : 23.438 FPS (2048 SPF)
Compression mode                         : Lossy
Stream size                              : 39.9 MiB (2%)
Title                                    : Spanish
Language                                 : Spanish
Default                                  : Yes
Forced                                   : No

</pre>
</div><div style="text-align: center">​</div></div>
</div><div style="text-align: center"><br>
<div class="bbCodeBlock bbCodeVfcHH HiddenContent">
<div class="attribution type">Hidden Content:</div>
<blockquote>You must reply before you can see the hidden data contained here.</blockquote>
</div></div>
<div class="messageTextEndMarker">&nbsp;</div>
</blockquote>
</article>]]></description>
                <author><![CDATA[fstambuk]]></author>
                </item>

                
                <item>
                <title><![CDATA[【Albums (lossy)】360 RA - Miley Cyrus - Plastic Hearts (Sony 360 Reality Audio) 12ch 16bits 48.0kHz]]></title>
                <link><![CDATA[https://sharemania.us/threads/miley-cyrus-plastic-hearts-sony-360-reality-audio-12ch-16bits-48-0khz.240097/]]></link>
                <description><![CDATA[<article>
<blockquote class="messageText SelectQuoteContainer ugc baseHtml">
<img src="https://i.imgur.com/zBJSorV.jpeg" class="bbCodeImage LbImage" alt="[​IMG]" data-url="https://i.imgur.com/zBJSorV.jpeg" style=""> <br>
<b><span style="color: #006600">To avoid false assumptions, these files were scanned with VirusTotal, the result is negative in containing any virus.</span></b><br>
<b><br>
<span style="color: #000000">All files are already decoded in .WAV with all channels inside.<br>
</span></b><br>
<span style="color: #000000">
<div class="ToggleTriggerAnchor bbCodeSpoilerContainer">
<button type="button" class="button bbCodeSpoilerButton ToggleTrigger Tooltip JsOnly" data-target="> .SpoilerTarget"><span>Spoiler: <span class="SpoilerTitle">MediaInfo</span></span></button>
<div class="SpoilerTarget bbCodeSpoilerText">Audio<br>
Format : PCM<br>
Format settings : Little / Signed<br>
Codec ID : 1<br>
Duration : -<br>
Bit rate mode : Constant<br>
Bit rate : 9 216 kb/s<br>
Channel(s) : 12 channels<br>
Sampling rate : 48.0 kHz<br>
Bit depth : 16 bits<br>
Stream size : -<br>
</div>
</div><br>
<br>
<b>Source: TIDAL</b></span><br>
<br>
<div style="text-align: center"><b><span style="color: #ff00ff">Download Server 1</span></b><br>
<span style="color: #000000">
<div class="bbCodeBlock bbCodeVfcHH HiddenContent">
<div class="attribution type">Hidden Content:</div>
<blockquote>You must reply before you can see the hidden data contained here.</blockquote>
</div></span><br>
<b><br>
<span style="color: #ff00ff">Download Server 2</span></b><br>
<span style="color: #000000">
<div class="bbCodeBlock bbCodeVfcHH HiddenContent">
<div class="attribution type">Hidden Content:</div>
<blockquote>You must reply before you can see the hidden data contained here.</blockquote>
</div></span><br>
<b><br>
<span style="color: #ff00ff">Password</span></b><br>
<span style="color: #000000">
<div class="bbCodeBlock bbCodeVfcHH HiddenContent">
<div class="attribution type">Hidden Content:</div>
<blockquote>You must reply before you can see the hidden data contained here.</blockquote>
</div></span>​</div>
<div class="messageTextEndMarker">&nbsp;</div>
</blockquote>
</article>]]></description>
                <author><![CDATA[narxerino]]></author>
                </item>

                </channel></rss>